<svg width="543" height="586" xmlns="http://www.w3.org/2000/svg" xmlns:xlink="http://www.w3.org/1999/xlink" xml:space="preserve" overflow="hidden"><defs><clipPath id="clip0"><rect x="1009" y="697" width="543" height="586"/></clipPath><linearGradient x1="1138.08" y1="697.169" x2="1423.46" y2="1283.22" gradientUnits="userSpaceOnUse" spreadMethod="reflect" id="fill1"><stop offset="0" stop-color="#68C3E7"/><stop offset="0" stop-color="#C0E3F4"/><stop offset="0.57" stop-color="#4472C4"/><stop offset="1" stop-color="#4472C4"/></linearGradient><linearGradient x1="1138.08" y1="697.169" x2="1423.46" y2="1283.22" gradientUnits="userSpaceOnUse" spreadMethod="reflect" id="fill2"><stop offset="0" stop-color="#68C3E7"/><stop offset="0" stop-color="#C0E3F4"/><stop offset="0.57" stop-color="#4472C4"/><stop offset="1" stop-color="#4472C4"/></linearGradient><linearGradient x1="1138.08" y1="697.169" x2="1423.46" y2="1283.22" gradientUnits="userSpaceOnUse" spreadMethod="reflect" id="fill3"><stop offset="0" stop-color="#68C3E7"/><stop offset="0" stop-color="#C0E3F4"/><stop offset="0.57" stop-color="#4472C4"/><stop offset="1" stop-color="#4472C4"/></linearGradient><linearGradient x1="1138.08" y1="697.169" x2="1423.46" y2="1283.22" gradientUnits="userSpaceOnUse" spreadMethod="reflect" id="fill4"><stop offset="0" stop-color="#68C3E7"/><stop offset="0" stop-color="#C0E3F4"/><stop offset="0.57" stop-color="#4472C4"/><stop offset="1" stop-color="#4472C4"/></linearGradient><linearGradient x1="1138.08" y1="697.169" x2="1423.46" y2="1283.22" gradientUnits="userSpaceOnUse" spreadMethod="reflect" id="fill5"><stop offset="0" stop-color="#68C3E7"/><stop offset="0" stop-color="#C0E3F4"/><stop offset="0.57" stop-color="#4472C4"/><stop offset="1" stop-color="#4472C4"/></linearGradient><linearGradient x1="1138.08" y1="697.169" x2="1423.46" y2="1283.22" gradientUnits="userSpaceOnUse" spreadMethod="reflect" id="fill6"><stop offset="0" stop-color="#68C3E7"/><stop offset="0" stop-color="#C0E3F4"/><stop offset="0.57" stop-color="#4472C4"/><stop offset="1" stop-color="#4472C4"/></linearGradient><linearGradient x1="1138.08" y1="697.169" x2="1423.46" y2="1283.22" gradientUnits="userSpaceOnUse" spreadMethod="reflect" id="fill7"><stop offset="0" stop-color="#68C3E7"/><stop offset="0" stop-color="#C0E3F4"/><stop offset="0.57" stop-color="#4472C4"/><stop offset="1" stop-color="#4472C4"/></linearGradient><linearGradient x1="1138.08" y1="697.169" x2="1423.46" y2="1283.22" gradientUnits="userSpaceOnUse" spreadMethod="reflect" id="fill8"><stop offset="0" stop-color="#68C3E7"/><stop offset="0" stop-color="#C0E3F4"/><stop offset="0.57" stop-color="#4472C4"/><stop offset="1" stop-color="#4472C4"/></linearGradient><linearGradient x1="1138.08" y1="697.169" x2="1423.46" y2="1283.22" gradientUnits="userSpaceOnUse" spreadMethod="reflect" id="fill9"><stop offset="0" stop-color="#68C3E7"/><stop offset="0" stop-color="#C0E3F4"/><stop offset="0.57" stop-color="#4472C4"/><stop offset="1" stop-color="#4472C4"/></linearGradient><linearGradient x1="1138.08" y1="697.169" x2="1423.46" y2="1283.22" gradientUnits="userSpaceOnUse" spreadMethod="reflect" id="fill10"><stop offset="0" stop-color="#68C3E7"/><stop offset="0" stop-color="#C0E3F4"/><stop offset="0.57" stop-color="#4472C4"/><stop offset="1" stop-color="#4472C4"/></linearGradient><linearGradient x1="1138.08" y1="697.169" x2="1423.46" y2="1283.22" gradientUnits="userSpaceOnUse" spreadMethod="reflect" id="fill11"><stop offset="0" stop-color="#68C3E7"/><stop offset="0" stop-color="#C0E3F4"/><stop offset="0.57" stop-color="#4472C4"/><stop offset="1" stop-color="#4472C4"/></linearGradient><linearGradient x1="1138.08" y1="697.169" x2="1423.46" y2="1283.22" gradientUnits="userSpaceOnUse" spreadMethod="reflect" id="fill12"><stop offset="0" stop-color="#68C3E7"/><stop offset="0" stop-color="#C0E3F4"/><stop offset="0.57" stop-color="#4472C4"/><stop offset="1" stop-color="#4472C4"/></linearGradient></defs><g clip-path="url(#clip0)" transform="translate(-1009 -697)"><path d="M1111.09 772.296 1199.63 802.572 1101.56 1089.37 1013.02 1059.09Z" fill="url(#fill1)" fill-rule="evenodd"/><path d="M1136.47 697.952C1185.37 714.655 1213.62 761.586 1199.56 802.775 1199.56 802.786 1199.55 802.797 1199.55 802.808L1111.01 772.532Z" fill="url(#fill2)" fill-rule="evenodd"/><path d="M1076.35 1163.19C1027.45 1146.49 999.205 1099.56 1013.27 1058.37 1013.27 1058.36 1013.27 1058.35 1013.28 1058.33L1101.81 1088.61Z" fill="url(#fill3)" fill-rule="evenodd"/><path d="M1212.75 854.428 1301.29 884.704 1232.4 1086.16 1143.86 1055.88Z" fill="url(#fill4)" fill-rule="evenodd"/><path d="M1237.83 780.957C1286.73 797.66 1314.94 844.706 1300.83 886.039 1300.83 886.05 1300.82 886.06 1300.82 886.071L1212.28 855.795Z" fill="url(#fill5)" fill-rule="evenodd"/><path d="M1207.32 1159.63C1158.41 1142.93 1130.21 1095.88 1144.31 1054.55 1144.32 1054.54 1144.32 1054.53 1144.33 1054.52L1232.86 1084.79Z" fill="url(#fill6)" fill-rule="evenodd"/><path d="M1314.23 937.069 1402.77 967.346 1363.48 1082.24 1274.94 1051.96Z" fill="url(#fill7)" fill-rule="evenodd"/><path d="M1339.31 863.6C1388.22 880.303 1416.44 927.286 1402.36 968.539 1402.36 968.55 1402.35 968.561 1402.35 968.572L1313.81 938.295Z" fill="url(#fill8)" fill-rule="evenodd"/><path d="M1338.15 1156.43C1289.25 1139.73 1261.02 1092.74 1275.1 1051.49 1275.11 1051.48 1275.11 1051.47 1275.11 1051.46L1363.65 1081.74Z" fill="url(#fill9)" fill-rule="evenodd"/><path d="M1459.57 891.462 1548.11 921.738 1450.04 1208.53 1361.5 1178.26Z" fill="url(#fill10)" fill-rule="evenodd"/><path d="M1484.99 817.877C1533.9 834.58 1562.14 881.511 1548.08 922.699 1548.08 922.71 1548.08 922.721 1548.07 922.732L1459.53 892.456Z" fill="url(#fill11)" fill-rule="evenodd"/><path d="M1424.83 1282.36C1375.93 1265.65 1347.68 1218.72 1361.74 1177.53 1361.75 1177.52 1361.75 1177.51 1361.76 1177.5L1450.29 1207.78Z" fill="url(#fill12)" fill-rule="evenodd"/></g></svg>