<svg width="543" height="586" xmlns="http://www.w3.org/2000/svg" xmlns:xlink="http://www.w3.org/1999/xlink" xml:space="preserve" overflow="hidden"><defs><clipPath id="clip0"><rect x="1009" y="697" width="543" height="586"/></clipPath></defs><g clip-path="url(#clip0)" transform="translate(-1009 -697)"><path d="M1111.09 772.296 1199.63 802.572 1101.56 1089.37 1013.02 1059.09Z" fill="#FFFFFF" fill-rule="evenodd"/><path d="M1136.47 697.952C1185.37 714.655 1213.62 761.586 1199.56 802.775 1199.56 802.786 1199.55 802.797 1199.55 802.808L1111.01 772.532Z" fill="#FFFFFF" fill-rule="evenodd"/><path d="M1076.35 1163.19C1027.45 1146.49 999.205 1099.56 1013.27 1058.37 1013.27 1058.36 1013.27 1058.35 1013.28 1058.33L1101.81 1088.61Z" fill="#FFFFFF" fill-rule="evenodd"/><path d="M1212.75 854.428 1301.29 884.704 1232.4 1086.16 1143.86 1055.88Z" fill="#FFFFFF" fill-rule="evenodd"/><path d="M1237.83 780.957C1286.73 797.66 1314.94 844.707 1300.83 886.039 1300.83 886.05 1300.82 886.061 1300.82 886.072L1212.28 855.795Z" fill="#FFFFFF" fill-rule="evenodd"/><path d="M1207.32 1159.63C1158.41 1142.93 1130.21 1095.88 1144.32 1054.55 1144.32 1054.54 1144.32 1054.53 1144.33 1054.51L1232.86 1084.79Z" fill="#FFFFFF" fill-rule="evenodd"/><path d="M1314.23 937.069 1402.77 967.346 1363.48 1082.24 1274.94 1051.96Z" fill="#FFFFFF" fill-rule="evenodd"/><path d="M1339.31 863.6C1388.22 880.303 1416.44 927.286 1402.36 968.539 1402.36 968.55 1402.35 968.561 1402.35 968.572L1313.81 938.296Z" fill="#FFFFFF" fill-rule="evenodd"/><path d="M1338.15 1156.43C1289.25 1139.73 1261.02 1092.74 1275.1 1051.49 1275.11 1051.48 1275.11 1051.47 1275.11 1051.46L1363.65 1081.74Z" fill="#FFFFFF" fill-rule="evenodd"/><path d="M1459.57 891.462 1548.11 921.738 1450.04 1208.53 1361.5 1178.26Z" fill="#FFFFFF" fill-rule="evenodd"/><path d="M1484.99 817.877C1533.9 834.58 1562.14 881.512 1548.08 922.701 1548.08 922.712 1548.07 922.723 1548.07 922.733L1459.53 892.457Z" fill="#FFFFFF" fill-rule="evenodd"/><path d="M1424.83 1282.36C1375.93 1265.65 1347.68 1218.72 1361.75 1177.53 1361.75 1177.52 1361.75 1177.51 1361.76 1177.5L1450.29 1207.78Z" fill="#FFFFFF" fill-rule="evenodd"/></g></svg>